<svg id="Layer_1" data-name="Layer 1" xmlns="http://www.w3.org/2000/svg" viewBox="0 0 271.28 368.08"><title>Scuderia Ferrari logo - Brandlogos.net</title><path d="M519.64,231.13v7L384,214.29,248.36,238.14v-7l135.63-24Z" transform="translate(-248.36 -199.96)" style="fill:#fff"/><path d="M519.64,224v7.18L384,207.13l-135.63,24V224L384,200Z" transform="translate(-248.36 -199.96)" style="fill:#0d8922"/><path d="M519.64,238.14,384,214.3,248.36,238.14v24.2l1.18-.66c.48-.27,48.6-27,134.73-27s133.69,26.78,134.17,27l1.15.67Z" transform="translate(-248.36 -199.96)" style="fill:#ed1c24"/><path d="M384.27,239.32c77.76,0,123.29,21.95,130.66,25.8v69.66a258.71,258.71,0,0,1-26.48,112.48C450,527.32,392.1,558.76,384,562.87c-8.11-4.11-66-35.55-104.49-115.62A258.83,258.83,0,0,1,253,334.77V265.12c7.45-3.84,53.46-25.8,131.25-25.8" transform="translate(-248.36 -199.96)" style="fill:#fff200"/><path d="M384.27,239.32c77.76,0,123.29,21.95,130.66,25.8v69.66a258.71,258.71,0,0,1-26.48,112.48C450,527.32,392.1,558.76,384,562.87c-8.11-4.11-66-35.55-104.49-115.62A258.83,258.83,0,0,1,253,334.77V265.12c7.45-3.84,53.46-25.8,131.25-25.8M249.54,261.68l-1.18.66v72.43A263.34,263.34,0,0,0,275.3,449.26c42,87.45,107.07,118,107.73,118.33l1,.45,1-.45c.65-.3,65.69-30.89,107.68-118.33a263.23,263.23,0,0,0,27-114.49V262.35l-1.16-.67c-.48-.26-48-27-134.17-27S250,261.4,249.54,261.68" transform="translate(-248.36 -199.96)" style="fill:#0a0a0a"/><path d="M350.87,487.85c-6.42-2.5-10.1-3.87-10.19-6.91,0-5.13,6.42-3.9,7.9-3.37a19.76,19.76,0,0,1,11.38,9s-1.38-8.2-1.69-9.76-1.23-1.35-1.71-1.29c-1,.07-1,1.77-1,1.77s-20.68-8.71-20.68,4.93c0,6.39,6.8,7.44,9.82,9,6.13,3.25,13.85,5.18,14.51,10.05.6,4.36-3.29,9.23-11.69,9.23a11.87,11.87,0,0,1-11.69-9.55c.32-1.56,1.87-.63,3.12-.63a2.72,2.72,0,0,0,2.36-3.93c-.78-2-7.26-2.15-7.26,4.47,0,9.37,9.28,12.2,13.32,12.2a13.6,13.6,0,0,0,14.25-9.93c2-8.89-2.33-12-10.75-15.28M436,480.25a119.11,119.11,0,0,0,11.86-1.49,28.07,28.07,0,0,0,9.36-4.67,50.63,50.63,0,0,1-14.1,2.52,33.78,33.78,0,0,1-11.57-.19,32.36,32.36,0,0,0-14.14-.85,9.23,9.23,0,0,0-8.19,7.7c-.48,3,3,4.8,6,4.06a6.64,6.64,0,0,0,4.15-4.63,11.4,11.4,0,0,1-4.19,2c-2.14.39-3.25-1.11-2.64-2.63a5.55,5.55,0,0,1,4.78-3.81,32.57,32.57,0,0,1,8.1,0c4.07.4,6.13,1.14,5,3a30.11,30.11,0,0,0-4.73,7.69c-.89,2.18-.66,3.27-2.13,3.27a5.64,5.64,0,0,0-4.12,1,4.38,4.38,0,0,0-1.53,3.64,4.93,4.93,0,0,1,4.67-2.16c.78,0,.28,2-.5,3.63s-4.7,12.2-12.93,12.2a9.3,9.3,0,0,1-9.64-8.95q0-.42,0-.84c.85-2.13,2.34-.19,4.07-.67a2.67,2.67,0,0,0,1.06-4.71c-5.24-3.61-10.23,5.27-4.77,13.07,5.15,7.44,13.34,4.63,17.62,2.37a21,21,0,0,0,8.09-9.75c1.43-2.91,2.71-6.16,2.71-6.16a15.31,15.31,0,0,0,4.52-.67,7.09,7.09,0,0,0,3.4-3.22,13.71,13.71,0,0,1-6.91.91c-.62,0,.83-3.06,2.19-5.71a14.51,14.51,0,0,1,4.53-5.94" transform="translate(-248.36 -199.96)" style="fill:#0a0a0a"/><path d="M378.41,258.31c.13,0,1.78-.78,1.78-.78a11.16,11.16,0,0,0-.31-1.72c0-.05-3.59-4.23-3.59-4.23l-.17-.2-.07.27-.37,1.69s-1.15,2.72-1.15,2.72l-.05.11,2.4,1.24,1.53.91m86.77,86.59c-.17-.21-.31-.22-.39-.19s-.2.1-.23.36c-.15,1.07-1.49,3.84-2.57,4.25a9,9,0,0,0-4.07,5.25c-.42,1-.83,1.87-1.14,1.89-.15,0-.29-.14-.46-.45a13.35,13.35,0,0,1,0-8.68l.16-.7a24,24,0,0,1,4.94-7.77l.74-.89a13.2,13.2,0,0,0,1.21-6.61.13.13,0,0,0-.15.05l-.06.08h0v0a.5.5,0,0,0-.18.33,26.25,26.25,0,0,1-7.74,8.64,24.78,24.78,0,0,0-3,3.56,9.21,9.21,0,0,1-1.44,1.75,15.32,15.32,0,0,1,1.95-11.51l.46-.87a25.63,25.63,0,0,1,7.16-9.57.34.34,0,0,0-.06-.43c-.19-.16-.54-.08-1.12.2l-.31.16a22.46,22.46,0,0,0-10.45,9.81,30.46,30.46,0,0,0-3.29,13.5,14.4,14.4,0,0,0,.63,4.66,134.87,134.87,0,0,1,3.82,13.82,107.42,107.42,0,0,1,.45,12.34c0,2,0,3.35,0,3.41l-1,3.26a15.87,15.87,0,0,1-4.66,6.86,22.89,22.89,0,0,1-8.9,5.69,8.22,8.22,0,0,1-3.64-.18c0-4.91-8.38-16.33-12.67-20.1a88.57,88.57,0,0,0-13.82-10.23c-6.06-3.7-12.78-19.18-12.85-19.33l-.59-2.09s-.33-4.18-.42-5.26c.22.12.5.3.5.3l2.07,1.21,2.36.9s3.11.62,3.11.62l1.72.89,1.61,1,2.49,1.8,2.55,1.35,3.07.16L411,348l-3.5-1.64c0-.06-1.25-2.22-1.25-2.22l-1.47-2.1-1.81-1.1c-.05,0-2.23-.32-2.24-.32L400,340l.57-.35s2.4.31,2.41.31,2.13,1.48,2.13,1.48l2.33,1.81,2.22.86.28.12-.94-2.5s-1.82-1.7-1.82-1.7l-2.64-2.26s-2.07-1.08-2.07-1.08l-2.22-.75L398,334.44l0-.3,3.21,1.29,2.81.76,2.33.9,3.36,1.64s2.83.62,2.83.62l3.42-.61c.06,0,3.29-2.28,3.29-2.28s.64-1.4.64-1.4l.13-.31-1.05.43-2.94,1.49-2,.44-2.3-.46h0s-1.85-1.76-1.85-1.76l-2.64-2.56-2.38-1.23-2.82-.46-1.72-.89s0,0,0-.08c0-.2,0-.65-.07-.86l3.5.3,3.83-.3,2.16.44,2.19.91,2.24.3.4.06-2.5-2.4-2.51-1.82-2.09-.76-3.54-.3s0-.07,0-.16,0-.5-.05-.66l1.62-.27,2.59.59,2.46,1.48,2.67.91c.07,0,3.87-.59,3.87-.59l.23,0L416.22,325c-.06-.05-2-.65-2-.65l-1.57-1.19-2.35-1.66-1.79-.61-2.81-.45s-1.37-1.29-1.4-1.32a3.62,3.62,0,0,0,.16-.64l1.46.4,1.88.9,2.67.84-.58-1.19s-1-1.08-1-1.08L408,317.2l.4-.1s2.85,1.5,2.85,1.5l2.22.76,1.71,1.61,3.26,1.86.32.19-.58-1.59s-1.78-2.29-1.78-2.29l-1.46-2.53s-2.66-2.73-2.66-2.73-3.4-1.84-3.4-1.84l-1.3-1.47-2.35-2.42s-.24-.85-.37-1.27l2.29.75,2.64.75,1.88,1.19,1.57,1.93c.06,0,2.55,1.1,2.55,1.1l6.39.83.36,0-1.74-1.84c-.05,0-3.42-1.54-3.42-1.54l-2-1.48s-1.14-2.08-1.14-2.08l-1.18-2.1s-1.92-1.83-1.92-1.83-2.38-1.38-2.38-1.38l-2.32-1.94s-.56-1.19-.92-2c.6.57,1.61,1.56,1.61,1.56l3.1,2.71,2.39,1.08,2,1.63,2.35,2.4c.08,0,3.75.56,3.75.56l.45.07-3.72-3.22c0-.07-.83-2.65-.83-2.65s-1.95-1.86-1.95-1.86l-1-1.19s-1-3.1-1-3.1-2.1-2.15-2.1-2.15-3.36-3.15-3.36-3.17v0s-.12-.52-.19-.84l.6.31,3.08,1.79s3.7,1.08,3.7,1.08l3.82.9,4.42.72-1-2.12c-.07-.07-2.27-1-2.27-1l-2-1.19-2.51-1.07-2.19-.9s-1.43-1.86-2.22-2.88l1.92,1.31c.06,0,2,.18,2,.18h6l2.44,1.34,2.08,2.25.28.3-.26-2.53c0-.08-1.34-1.73-1.34-1.73s-3.56-2-3.56-2L417,282.86l-4.28-.75h0s-.81-1-.81-1l-3.09-2.86-1.5-.77-.75-.79h1.58l2.42,1.48,3.26,1.06,4.13.6s1.53,1.77,1.53,1.77l2.24,1.37c.05,0,2.54.46,2.54.46l.35.06L419.44,277l-2.54-1.38s-2.94-.92-2.94-.92-2.59-3-2.59-3-3.27-2-3.27-2l-2.34-.57c.15-.24.63-1,.63-1.05S409,267,409,267l3.78-.73a6.08,6.08,0,0,0,.4-1,15.3,15.3,0,0,0-1.66-1.21l-1.94-.62a10.63,10.63,0,0,0-1.14.61l-3.17.13-3.79-.9L397.56,260l-1.79-.91c-.05,0-6.48-.77-6.5-.77s-1.52-2.34-1.52-2.34-2.06-2.27-2.06-2.27-2.64-2.39-2.64-2.39l-.08.17-.88,2-.87,1.33v0c0,.24.13,1.55.13,1.55s.9,1,.91,1-.33,1.36-.33,1.37-3.53.05-3.53.05-2.89-1.34-2.89-1.34l-2.21-.75-5.19.15c-.1.06-1,1.41-1,1.41l-.11.17,2.26.33s.33.22.52.34l-.58.48s-3.15-.18-3.15-.18-2.25.91-2.25.91l-.23.1,1.09.73c.06,0,4.76.18,4.76.18l3.49.9c0,.05.67,1,.67,1s.47.66.64.93l-1.49.83-4.24,1.8-8.81,5-5.81.86s-2.26,1.26-2.26,1.26-1.83,2.51-1.83,2.51-1,3.12-1,3.12c-.08,5.25.13,5.37.21,5.42a3.25,3.25,0,0,0,2.85.34,26.75,26.75,0,0,1,5.63-1.75c.72-.15,1.07.11,1.13.38s-.14.7-.69.85l-.3.09c-2.56.7-5.18,1.54-5.1,2.53l.46.75a9.12,9.12,0,0,0,5.68.07l1.65-.46a11.36,11.36,0,0,1,4.42-.76,7.65,7.65,0,0,1,2.32.82,10.74,10.74,0,0,0,4.33,1.29,16.93,16.93,0,0,1,5.54,1.05,5.59,5.59,0,0,1-.06,3.21l-.17.95c-.89,8.13-9.94,17.31-14.29,21.72a17.38,17.38,0,0,0-2.12,2.32l-.5,1.15a3.71,3.71,0,0,1-2.15,2.57,35.74,35.74,0,0,0-4.83,3.34,29.39,29.39,0,0,1-8.06,5.12,57.74,57.74,0,0,1-10.48-6.31c-8.12-7.88-11.52-6.26-13.55-5.31l-.33.15c-2.42,1.1-5,8-5.19,9.46l-1,4.24-.75,3.12c-.22,1-1.22,3.63-2.18,6.14l-2,5.44a34.72,34.72,0,0,1-1.74,4.47l-.87,2.12a59.8,59.8,0,0,0,.43,17.33l.05.05.21.06c1-.11,3.31-2.45,4.39-3.58l.25-.26a8.83,8.83,0,0,0,1.9-4.44,18.6,18.6,0,0,0-.66-3.73,24.36,24.36,0,0,1-.65-10.85l.11-.92a6.47,6.47,0,0,1,2-3l1.18-1.36a4.1,4.1,0,0,1,2-1.4l1-.59.15-.17a9,9,0,0,0,2.38-3.45l1-4.31.21-1.14a.46.46,0,0,1,.36-.4,1.44,1.44,0,0,1,1.25.56l7.19,8.36a17.2,17.2,0,0,1,3.73,3.86v0h-.05a43.39,43.39,0,0,1-6.9-1.22c-6.88-2-10-1.66-12.45,1.38-2.76,3.48-1.89,14.15-1.33,15.31s3,14.05,3.16,15.79a12.84,12.84,0,0,0,1.45,5.43l.18.19a11.82,11.82,0,0,1,3.47,5.31,21.2,21.2,0,0,0,7.5,9.47.93.93,0,0,0,.86-.16c1.49-1.07,2.17-6.24,2.25-8.43a7.6,7.6,0,0,0-1.92-5.45l-.4-.56a5.39,5.39,0,0,0-3-1.67c-.37-.11-.89-.23-.89-.34s-.11-4-1.38-4.8a12.08,12.08,0,0,1-2.11-5.93,24.94,24.94,0,0,0-1.43-6.51,12.67,12.67,0,0,1-1.07-6.61,1.46,1.46,0,0,1,1.35-1.32,2.62,2.62,0,0,1,2.21.59,49.48,49.48,0,0,0,10.07,6.09,23.75,23.75,0,0,1,5.4,3.88,20.29,20.29,0,0,0,3.1,2.35,20,20,0,0,0,5.71.54,14.83,14.83,0,0,1,2.46.15c-.86.35-.85,1.87-.79,2.36.89,6.28,23.7,23.57,25.45,24.54a68.92,68.92,0,0,1,10,9.81,5.25,5.25,0,0,1,1.19,3,5.2,5.2,0,0,0,1.35,3.93,4.82,4.82,0,0,0,3.43,1.77c1,0,1.7-.9,2.2-1.56l.1-.15a15,15,0,0,0,3.65-8.6c.26-4.23,2.22-5.93,2.84-6,.29-.05.49,0,.57.22s0,.51-.4.77a9.34,9.34,0,0,0-1.93,4.45l-.22,2.05a6.77,6.77,0,0,1-1.62,4.91,28.38,28.38,0,0,0-5.53,15.29,36.55,36.55,0,0,0,5.75,18.44l.3.57,1.14,1.92a23.55,23.55,0,0,1,3,5.68,6.77,6.77,0,0,1-2,4,114.17,114.17,0,0,1-9.67,10.8,3.41,3.41,0,0,0-2.77,1l-1.19.91a4,4,0,0,0-1.74,2.25,2.39,2.39,0,0,1-.92,1.31l-.45.32c-.09.07-.36.43-3.18,3.28a12.37,12.37,0,0,0-4.2,10.5c.14,1.13,1.13,1.52,4,1.66a16.35,16.35,0,0,0,9.79-6l.1-.57c.24-1.37.67-3.67,1.43-4a17.14,17.14,0,0,0,3.57-3.5l.23-.23a4.27,4.27,0,0,0,.89-2.07,4,4,0,0,1,.58-1.53,2.86,2.86,0,0,1,1.11-.76,4.87,4.87,0,0,0,2.78-3,33.81,33.81,0,0,1,9-7.84,24.53,24.53,0,0,0,3.47-2.71,5.23,5.23,0,0,0,.73-2.94,5.36,5.36,0,0,0-1.29-3.83,18.44,18.44,0,0,1-2.91-6v0c0-.47,0-1.33-.12-2.95a1.88,1.88,0,0,1,0-.22c0-4.24,6.3-8.39,9-10.19l1.23-.87c9.86-8.71,11.79-15.34,12.15-17.16l.21-2.18c.06-1.52.11-2.95,1-3.14a1.63,1.63,0,0,1,1.3.65,1.25,1.25,0,0,1,.31,1.28c-.44,1.22-.61,13.52-.61,14,0,.09,1.07,1.29,1.07,1.29l.19.22.05-.29c0-.14.58-3.49.58-4.68a20.83,20.83,0,0,1,2.64-7.1.14.14,0,0,0,0,.06,18.18,18.18,0,0,1,.58,4.79,9.13,9.13,0,0,1-1.28,5.34,27.47,27.47,0,0,0-3.43,6.63l-.7,1.63a1.91,1.91,0,0,0-.11.7,14.64,14.64,0,0,0,1.32,5.5c.14.14.25.14.33.11s.33-.28.33-1.58a12.6,12.6,0,0,1,4.21-8.61A15.82,15.82,0,0,0,444,413.48a33.49,33.49,0,0,0-.47-5.58s-1.72-2.52-1.76-2.58.55-.35.71-.48c.16.19,1.82,2.43,1.82,2.43a5.83,5.83,0,0,1,1,2,23.52,23.52,0,0,0,.67,5.58l.06.31a62,62,0,0,0,2.22,5.9l.19.46.05-.51a18.08,18.08,0,0,0,0-4.24,14.6,14.6,0,0,1,.26-3.88l.32-3.31a10.57,10.57,0,0,0-1.33-6l-.49-.73a2.19,2.19,0,0,1-.36-.67l.36-.16a21.78,21.78,0,0,0,12.83-11.53,26.66,26.66,0,0,0,1.61-9.53,48.71,48.71,0,0,0-1.17-11.47,16.45,16.45,0,0,1-.24-6.59l.24-4a11.64,11.64,0,0,1,2.87-6.81l1.67-2.6a4.62,4.62,0,0,0,.07-4.6M385.51,445.11l3.39,1.62a5,5,0,0,0,3.66.23,8,8,0,0,0,2.66-3.77,1.81,1.81,0,0,0-.27-1.69,49.07,49.07,0,0,1-4.53-12.68,45,45,0,0,1,.37-8.65,27.5,27.5,0,0,0,.3-4.92c-.24-.68-1.25-1.34-2.43-2.09l-1.85-1.26a3.82,3.82,0,0,1-1.08-3.1l-.19-1.85a41.7,41.7,0,0,0-10.46-10.69c-2-.13-2.46,2-2.59,3.3a47.48,47.48,0,0,0,1.59,7.13l.86,3.61a77.38,77.38,0,0,0,9.46,19.93l1.21,2.07c.54,1.21.32,2.16-.61,2.68a45.33,45.33,0,0,1-12.45-1.16,39.75,39.75,0,0,1-5.52-1.94,23.2,23.2,0,0,0-5.52-1.81,4.66,4.66,0,0,0-2.59.46l-.85.23-.84-.27a23.74,23.74,0,0,0-8.26-1.78c-7.7-.72-8.28.84-8.59,1.67-.39,1.08,4.33,6.09,5.17,6.76a11,11,0,0,0,6.65,1.84,57.53,57.53,0,0,1,6.84-.78l.78.49.74.53a50.69,50.69,0,0,0,6.28.58c1.5.08,5.44.9,8.32,1.5l3.22.66a43.08,43.08,0,0,1,7.13,3.16" transform="translate(-248.36 -199.96)" style="fill:#0a0a0a"/><path d="M380,438.38l.11-.17c.21-.85-4-2.16-6.29-2.75a16.05,16.05,0,0,0-6.65-.81l-.05,0-.11.19c-.21.84,4,2.16,6.28,2.75a16.81,16.81,0,0,0,6.66.8Zm-17.91-6c-.71,0-1.27.38-1.27.87s.56.86,1.27.86,1.24-.4,1.24-.86-.56-.87-1.24-.87m-14.68-1c-1,0-1.8.57-1.8,1.27s.81,1.27,1.8,1.27,1.81-.54,1.81-1.27-.8-1.27-1.81-1.27M382,479.59a3.12,3.12,0,0,0-1.88,1.06,3.17,3.17,0,0,0-1.05,1.93.59.59,0,0,0,.18.47l.47.19a3.08,3.08,0,0,0,1.88-1.07c.93-1,1.29-2,.87-2.4Zm6.62-9.59a2.93,2.93,0,0,0-1.65,1c-.7.7-1.22,1.68-.83,2.09l.37.13a2.87,2.87,0,0,0,1.66-1c.69-.71,1.22-1.67.82-2.07Zm15.11-14-.14,0a21.25,21.25,0,0,0-5.75,4.77c-.21.21-5.23,5.39-4.57,6.06l0,0,.16,0a21.46,21.46,0,0,0,5.75-4.76c.21-.22,5.26-5.39,4.57-6.08Zm-15.17-20.09a1.14,1.14,0,1,0-.12,2.28h.12a1.14,1.14,0,0,0,.11-2.28h-.11m20.82,16.6a1.35,1.35,0,1,0-.05,2.71h.05a1.35,1.35,0,1,0,0-2.71h0m-8.84-9.8.06-.37c0-.22.69-5.38-.9-7.37a2,2,0,0,0-1.37-.77,1,1,0,0,0-1,.41c-1,1.56,2.81,7.52,3,7.78Zm-5.52-18.49c0,.05.16.27.35.26h.08l.15-.21,1.21-3.71,1-2.47.81-1.87q.36-.94,0-1.29c-.39-.36-1.19-.06-1.28,0s-2.28,3.76-2.28,3.76a4.58,4.58,0,0,0-.6,2.48,7.19,7.19,0,0,0,.62,3.09m-66-34.86a1.31,1.31,0,1,0,1.35,1.32,1.34,1.34,0,0,0-1.35-1.32m-19.53-25a1.11,1.11,0,0,0-1.15,1.07,1.1,1.1,0,0,0,1.15,1,1.11,1.11,0,0,0,1.16-1,1.13,1.13,0,0,0-1.16-1.07m7.95-4.62,0,0-.23,0c-.79.18-.24,3.64.17,5.44a11.52,11.52,0,0,0,1.91,4.92l0,0,.22,0c.8-.19.23-3.65-.18-5.44a11,11,0,0,0-1.89-4.92m.68-12.21c.58-.78.7-1.67.26-2l-.51-.11a2.14,2.14,0,0,0-1.29.94c-.58.78-.69,1.66-.26,2l.5.1a2.15,2.15,0,0,0,1.31-.93m-1.5-11.19a8.28,8.28,0,0,0,2.17-3.93c.72-2.16,1.11-4.47.4-4.72l-.32,0a8.35,8.35,0,0,0-2.18,3.95c-.73,2.16-1.11,4.47-.42,4.72Zm6.67-14.62c-1.09,0-2,.53-2,1.18s.88,1.18,2,1.18,2-.52,2-1.18-.88-1.18-2-1.18m20.65,13.44a11.5,11.5,0,0,0-3.29,5.28,17.34,17.34,0,0,0-1.33,5.34c0,.59.13,1,.42,1.14l.44,0a11.65,11.65,0,0,0,3.3-5.28,17.6,17.6,0,0,0,1.33-5.34c0-.6-.13-1-.41-1.13Zm-11.27,1.57.31-.13c.4-.44-.51-1.71-1.62-2.73a4.72,4.72,0,0,0-2.54-1.49l-.3.13a.42.42,0,0,0-.09.28,4.94,4.94,0,0,0,1.71,2.46,4.77,4.77,0,0,0,2.53,1.48m1.07,18.77a24.07,24.07,0,0,0-6.29-2.23l-.1.24,4.39,3.32c.73.59,3.92,2.58,5,1.77a.51.51,0,0,0,.19-.43c0-.61-1.12-1.4-3.14-2.67m44.19,36.23c-.1-.13-11.39-12.4-13.82-15.61s-3.68-3.55-4.89-2.87a.66.66,0,0,0-.32.5c-.17,1.35,2.64,4.58,5.1,7,3.44,3.34,13.63,11.15,13.73,11.23Zm47.74,11.91-.06,0,0,0a2.21,2.21,0,0,0-1.06,1.19,1.71,1.71,0,0,0,.36,1.35l.28.51.11,1,.18,1.47a.72.72,0,0,0,.71.5,1.08,1.08,0,0,0,.94-.87,14.18,14.18,0,0,0,.29-3.27c0-1.32-1.63-1.83-1.69-1.86M394.9,386.74a.71.71,0,0,0,.75.12,1.25,1.25,0,0,0,.81-1.06,5,5,0,0,1,1.31-2.51,2.27,2.27,0,0,0-.13-3.13l-1-.38a1.76,1.76,0,0,0-1.08.52c0,.08-.92,4.58-.92,4.58h0c-.09.26-.17,1.47.23,1.86m59.4-18.63-.26,0s.07,2,.07,4.55a53.34,53.34,0,0,1-.76,10.85,41.07,41.07,0,0,1-4.82,8l-2.22,3.34a.77.77,0,0,0-.1.38,1,1,0,0,0,.46.84c.23.15,1,.55,2.16-.8l1.43-1.51a20.94,20.94,0,0,0,5.92-9.47c1.82-5.72-1.83-16.12-1.87-16.22m-57.65-2.88c1.77.83,2.4,1.12,2.66,1.21v0h0c.12,0,.16,0,.19,0l-.12-.14,0-.05-.11-.06A64.36,64.36,0,0,1,389.61,348a3.7,3.7,0,0,0-1.22-2.5,1.76,1.76,0,0,0-1.52,0,.45.45,0,0,0-.31.33,1.39,1.39,0,0,0-.08.57,35.05,35.05,0,0,0,3.34,10.22c4.52,7.38,6.75,8.6,6.83,8.65M379.81,338a1.22,1.22,0,0,0,.48-1.19c-.12-2.23-.72-2.48-1.95-2.48a2.28,2.28,0,0,0-2.13,1.9c0,.61.44,1.13,1.3,1.58a2.62,2.62,0,0,0,2.29.19m-20.22-10.31,1.49-.27a29,29,0,0,1,5.76-.81,15.78,15.78,0,0,1,5.13,1c1.27.43,1.9.62,2.16.34s.05-.42,0-.6c-.39-.83-2.07-3.56-7.56-3.69a9.12,9.12,0,0,0-7.1,3.38c-.13.21-.16.36-.1.48l.06.08Zm32,1.95c.59,0,1.09-.36,1.09-.82s-.5-.82-1.09-.82-1.09.37-1.09.82.49.82,1.09.82m1.1-2.24c.62,0,1.13-.36,1.13-.82s-.5-.81-1.13-.81-1.14.36-1.14.81.52.82,1.14.82m1.14-2.34a1,1,0,1,0-.46,0,1,1,0,0,0,.46,0m1-5.35a1.11,1.11,0,1,0,1.19,1.12,1.16,1.16,0,0,0-1.19-1.12m2.13-2.11a1.18,1.18,0,0,0-1.23-1.11,1.12,1.12,0,0,0-.25,2.22h.25a1.17,1.17,0,0,0,1.23-1.11h0m1.24-3.55a1.54,1.54,0,1,0-1.23,1.23,1.54,1.54,0,0,0,1.23-1.23m.66-3.67a1.46,1.46,0,1,0-1.42,1.12,1.31,1.31,0,0,0,1.42-1.12m1.24-2.92c0-.64-.85-1.12-2-1.12s-1.94.48-1.94,1.12.87,1.12,1.94,1.12,2-.5,2-1.12M397.17,304c0,.58.71,1.06,1.66,1.06s1.64-.48,1.64-1.06-.71-1.06-1.64-1.06-1.66.46-1.66,1.06m.07-1.91a2.12,2.12,0,0,0,1.54.27c1-.13,1.64-.66,1.56-1.21l-.28-.45a2.09,2.09,0,0,0-1.53-.27c-1,.13-1.64.67-1.56,1.21Zm1.59-3.12c.86-.07,1.49-.54,1.43-1.09l-.28-.5a1.88,1.88,0,0,0-1.32-.32c-.83.07-1.44.52-1.44,1v.06l.28.48a1.76,1.76,0,0,0,1.32.33m.47-5.39c-.76,0-1.37.45-1.37,1s.61,1,1.37,1,1.36-.45,1.36-1-.61-1-1.36-1m-.05-3.22a1,1,0,1,0,1.22,1,1.1,1.1,0,0,0-1.22-1m.05-2.55a.89.89,0,1,0,1.09.87,1,1,0,0,0-1.09-.87m-.89-2a.94.94,0,0,0,1,.92h0a.92.92,0,1,0,0-1.84h0a.94.94,0,0,0-1,.92m.46-3.81a.91.91,0,1,0,.95.92.92.92,0,0,0-.93-.92h0m-16.2,15.58-.45-.05c-1.2.31-3.25,3.86-4.68,6.49l-.26.45L373,312.52l-1.34,2.58a.63.63,0,0,0,.12.8.76.76,0,0,0,1,0,22.78,22.78,0,0,0,4.54-5.14l1.62-2.23a19.12,19.12,0,0,0,2.91-4.69l.24-.62c1.65-4.27,1.9-4.93.58-5.74m5.55-11.29a.71.71,0,0,0-.9-.31l-.77.57a5.77,5.77,0,0,1-1.8,1.18c-1.43.38-3.36,1-3.47,2v.12a.61.61,0,0,0,.24.52c.54.44,1.85.18,2.8-.18a9.79,9.79,0,0,0,3.49-2.24c.7-.64.67-1.28.42-1.67m-7.13.55a.77.77,0,0,0,.39.76,1,1,0,0,0,1.24-.45l1.1-1a8.44,8.44,0,0,0,1.84-1.65c.54-.71.31-1.14.11-1.32a1.27,1.27,0,0,0-1.39-.23l-.32.21a6.82,6.82,0,0,0-2.83,2.92,2.29,2.29,0,0,0-.14.72m-5.57-3L374,284.9l-.11.12a.49.49,0,0,0-.16.66l.18.27.41-.09.59-.21.86-.15a4,4,0,0,0,2.19-.67l.57-.94.84-1.36c.41-.44.42-.76.37-.93a.47.47,0,0,0-.39-.31.76.76,0,0,0-.75.28,33.64,33.64,0,0,1-3.05,2.23m-14.1-.11a1,1,0,0,0,1-1,1,1,0,1,0-1,1M357,277.33c-.22.21-.13.66-.06,1l0,.25,0,.15a.44.44,0,0,0,0,.44c.08.14.31.2.69.2s.53,0,.7-.48l.13-.33a1,1,0,0,0,0-.77,1.53,1.53,0,0,0-1.06-.59.4.4,0,0,0-.4.09m-3.7-.43a1.57,1.57,0,0,0-1.35.76l-.33.38a3.37,3.37,0,0,0-.67,2.59c0,.37.13,1.05.5,1.28.71.43,1,.13,1.77-.57l.56-.48a3.76,3.76,0,0,0,1.64-2.32,1.31,1.31,0,0,0-.31-1.07,2.45,2.45,0,0,0-1.81-.59m10-2.47.3-.09,2.46-1,3.58-2.35c.1-.07,1-.79.84-1.24s-.6-.25-.94-.19a12.71,12.71,0,0,0-3,1.16l-1.45.68-.63.27c-2.22.92-4,1.74-3.69,2.59.2.5,1.14.55,2.51.14m14.31,1.23a1.22,1.22,0,0,0,.9-.47,3.14,3.14,0,0,0,0-3.14,2.93,2.93,0,0,0-2.35-1.74h0l-.2,0-1.71.15a2.68,2.68,0,0,0-1.93,1.52.8.8,0,0,0,.18.86,8.48,8.48,0,0,0,5.09,2.84m18.79-1.52c.12-.37.23-.71,0-.9s-.45-.15-1,0a4.11,4.11,0,0,0-2.24,3.78l-.05.4c-.11.59.19.8.37.86a2.15,2.15,0,0,0,2-.77c.28-.46,1.8-.87,2.93-1.19l.43-.11c.51-.15.78-.34.82-.62s-.34-.67-.7-.87-.79-.07-1.29.08a2.25,2.25,0,0,1-1.36.13c-.19-.08-.12-.4,0-.84m-2.17-8.48a.79.79,0,0,0-.37.87l.07.27c.08.32.12.38.4.41l.52.09a2,2,0,0,0,2-.78c.08-.17.14-.51-.32-.83a2.08,2.08,0,0,0-2.27,0m-.83-2.43.7.36a.86.86,0,0,0,.58.49,1,1,0,0,0,.83-.21c.18-.14.22-.4.11-.76a1.73,1.73,0,0,0-1.42-1.19c-.82,0-1.57.09-1.57.71,0,.34.39.46.76.59m-14.33,5.93a2,2,0,0,0,1.5-.17c.83-.38,1.32-1.06,1.12-1.53l-.4-.35a2,2,0,0,0-1.47.17c-.72.32-1.17.84-1.17,1.3a.43.43,0,0,0,.05.23Z" transform="translate(-248.36 -199.96)" style="fill:#fff"/></svg>